<svg width="1204" height="237" viewBox="0 0 1204 237" fill="none" xmlns="http://www.w3.org/2000/svg">
<path d="M1010.42 180.255H980.1V102.855C980.102 88.9338 983.891 75.2755 991.062 63.3432C998.232 51.4109 1008.51 41.6544 1020.81 35.1189C1033.1 28.5834 1046.94 25.5153 1060.84 26.2432C1074.74 26.9711 1088.18 31.4676 1099.72 39.251L1082.75 64.378C1075.77 59.6747 1067.64 56.959 1059.23 56.5218C1050.83 56.0846 1042.46 57.9423 1035.03 61.896C1027.6 65.8496 1021.38 71.7503 1017.05 78.966C1012.71 86.1817 1010.42 94.4405 1010.42 102.858V180.255Z" fill="#EE3124"/>
<path d="M77.718 178.838C64.1888 178.84 50.8998 175.264 39.1985 168.472C27.4972 161.681 17.7999 151.917 11.0899 140.169C4.37999 128.421 0.896045 115.107 0.991408 101.578C1.08677 88.0493 4.75804 74.7862 11.6329 63.1339C18.5079 51.4817 28.3419 41.8547 40.1377 35.2291C51.9336 28.6036 65.2717 25.2153 78.7996 25.4077C92.3274 25.6001 105.564 29.3664 117.166 36.3247C128.769 43.283 138.325 53.1858 144.866 65.0289L118.332 79.7079C113.402 70.7314 105.643 63.636 96.2623 59.5259C86.8819 55.4158 76.406 54.5213 66.4645 56.9816C56.523 59.4419 47.6734 65.1191 41.2926 73.1298C34.9119 81.1405 31.3577 91.0356 31.1831 101.276C31.0084 111.515 34.2232 121.526 40.3272 129.75C46.4311 137.973 55.082 143.949 64.9338 146.747C74.7856 149.544 85.2859 149.008 94.801 145.22C104.316 141.432 112.313 134.605 117.546 125.802L143.587 141.335C136.767 152.729 127.12 162.169 115.579 168.74C104.039 175.31 90.9975 178.789 77.718 178.838Z" fill="#EE3124"/>
<path d="M227.711 179.487C212.538 179.487 197.705 174.988 185.089 166.558C172.473 158.128 162.639 146.146 156.833 132.128C151.026 118.11 149.507 102.684 152.467 87.8025C155.427 72.9207 162.734 59.2508 173.463 48.5216C184.192 37.7923 197.862 30.4856 212.743 27.5253C227.625 24.565 243.051 26.0841 257.069 31.8906C271.087 37.697 283.069 47.53 291.499 60.1461C299.929 72.7622 304.429 87.5947 304.429 102.768C304.406 123.108 296.316 142.608 281.933 156.991C267.551 171.373 248.051 179.464 227.711 179.487ZM227.711 56.3741C218.534 56.3741 209.562 59.0955 201.932 64.1943C194.301 69.2931 188.354 76.5401 184.842 85.0189C181.331 93.4978 180.412 102.828 182.203 111.828C183.994 120.829 188.414 129.097 194.903 135.586C201.393 142.075 209.661 146.494 218.662 148.283C227.664 150.073 236.993 149.153 245.472 145.64C253.95 142.128 261.196 136.179 266.294 128.548C271.392 120.917 274.112 111.945 274.111 102.768C274.097 90.4669 269.203 78.6739 260.505 69.9762C251.806 61.2786 240.012 56.3868 227.711 56.3741Z" fill="#EE3124"/>
<path d="M558.369 179.487C543.196 179.486 528.364 174.987 515.748 166.556C503.132 158.126 493.299 146.144 487.493 132.126C481.687 118.108 480.168 102.683 483.128 87.801C486.089 72.9194 493.395 59.2499 504.125 48.5209C514.854 37.7919 528.523 30.4854 543.405 27.5252C558.287 24.565 573.712 26.0842 587.73 31.8906C601.748 37.697 613.73 47.5298 622.16 60.1457C630.59 72.7616 635.09 87.5939 635.09 102.767C635.068 123.108 626.977 142.609 612.594 156.992C598.211 171.375 578.71 179.465 558.369 179.487ZM558.369 56.3741C549.192 56.3741 540.221 59.0955 532.59 64.1943C524.959 69.2931 519.012 76.5401 515.5 85.0189C511.989 93.4978 511.07 102.828 512.861 111.828C514.652 120.829 519.072 129.097 525.561 135.586C532.051 142.075 540.319 146.494 549.321 148.283C558.322 150.073 567.651 149.153 576.13 145.64C584.608 142.128 591.854 136.179 596.952 128.548C602.05 120.917 604.77 111.945 604.769 102.768C604.755 90.4668 599.862 78.6734 591.163 69.9756C582.464 61.2779 570.67 56.3862 558.369 56.3741Z" fill="#EE3124"/>
<path d="M892.367 179.487C877.194 179.487 862.361 174.987 849.745 166.557C837.129 158.127 827.296 146.146 821.49 132.127C815.683 118.109 814.164 102.684 817.124 87.8019C820.084 72.9201 827.391 59.2504 838.12 48.5212C848.849 37.7921 862.519 30.4854 877.401 27.5252C892.283 24.565 907.708 26.0842 921.726 31.8907C935.744 37.6972 947.726 47.5301 956.156 60.1462C964.586 72.7623 969.086 87.5947 969.086 102.768C969.063 123.108 960.973 142.609 946.59 156.991C932.207 171.374 912.707 179.464 892.367 179.487ZM892.367 56.3741C883.19 56.3741 874.218 59.0955 866.588 64.1943C858.957 69.2931 853.01 76.5401 849.498 85.0189C845.987 93.4978 845.068 102.828 846.859 111.828C848.65 120.829 853.07 129.097 859.559 135.586C866.049 142.075 874.317 146.494 883.318 148.283C892.32 150.073 901.649 149.153 910.128 145.64C918.606 142.128 925.852 136.179 930.95 128.548C936.048 120.917 938.768 111.945 938.767 102.768C938.752 90.467 933.859 78.6741 925.16 69.9765C916.462 61.2789 904.668 56.387 892.367 56.3741Z" fill="#EE3124"/>
<path d="M725.162 26.051C704.822 26.0725 685.321 34.1618 670.938 48.5441C656.555 62.9265 648.465 82.427 648.443 102.767L649.391 215.742H679.715L678.765 163.815C688.458 171.182 699.765 176.135 711.751 178.266C723.738 180.397 736.059 179.644 747.697 176.069C759.335 172.494 769.954 166.201 778.678 157.708C787.401 149.216 793.978 138.769 797.864 127.232C801.75 115.694 802.833 103.397 801.025 91.3579C799.217 79.3186 794.569 67.8826 787.465 57.9956C780.361 48.1086 771.006 40.0546 760.173 34.4997C749.339 28.9447 737.34 26.0483 725.165 26.05L725.162 26.051ZM725.162 149.164C715.985 149.164 707.014 146.443 699.384 141.344C691.753 136.246 685.806 128.999 682.294 120.521C678.782 112.042 677.863 102.713 679.654 93.7119C681.444 84.7111 685.863 76.4434 692.352 69.9543C698.842 63.4651 707.109 59.046 716.11 57.2556C725.111 55.4652 734.44 56.3841 742.919 59.896C751.397 63.4079 758.644 69.3551 763.742 76.9856C768.841 84.616 771.562 93.587 771.562 102.764C771.549 115.066 766.656 126.86 757.957 135.559C749.258 144.258 737.464 149.151 725.162 149.164Z" fill="#EE3124"/>
<path d="M1203.86 37.432H1144.71V0H1114.39V180.255H1144.71V67.755H1203.86L1203.86 37.432Z" fill="#EE3124"/>
<path d="M476.168 30.1879C474.776 28.1586 472.828 26.5742 470.557 25.6247C468.287 24.6752 465.79 24.401 463.368 24.8349C457.168 26.1559 452.126 31.1849 448.495 36.0979C446.385 38.9517 444.575 42.016 443.095 45.2419C428.479 32.2982 409.481 25.4092 389.965 25.9766C370.45 26.544 351.884 34.5253 338.045 48.2964C324.205 62.0676 316.133 80.594 315.469 100.106C314.805 119.619 321.6 138.651 334.472 153.33C347.343 168.01 365.324 177.235 384.756 179.127C404.188 181.019 423.61 175.437 439.072 163.516C454.534 151.595 464.873 134.232 467.986 114.958C471.099 95.6841 466.753 75.9483 455.83 59.7659C459.035 58.7498 462.149 57.4646 465.138 55.924C468.241 54.3268 471.041 52.1987 473.41 49.6359C478.061 44.4969 480.475 36.2799 476.168 30.1879ZM394.259 149.188C385.068 149.63 375.953 147.336 368.065 142.597C360.178 137.858 353.873 130.887 349.948 122.564C346.023 114.242 344.654 104.943 346.014 95.8424C347.374 86.742 351.402 78.2492 357.588 71.438C363.775 64.6269 371.843 59.8034 380.771 57.5774C389.699 55.3515 399.087 55.823 407.747 58.9325C416.407 62.042 423.951 67.6497 429.424 75.0465C434.897 82.4433 438.054 91.297 438.495 100.488C439.071 112.808 434.737 124.854 426.445 133.983C418.152 143.112 406.577 148.58 394.258 149.187L394.259 149.188Z" fill="#EE3124"/>
<path d="M466.289 179.798C466.177 179.564 466.058 179.338 465.933 179.119C463.061 174.09 457.46 176.341 454.078 179.453C450.212 183.097 446.158 186.535 441.931 189.753C433.431 196.073 423.931 201.204 413.631 203.853C402.216 206.799 390.306 207.295 378.686 205.307C368.194 203.526 358.309 199.199 349.308 193.607C344.829 190.752 340.503 187.664 336.348 184.355C333.194 181.903 328.425 179.955 325.399 183.605C319.617 190.582 323.248 201.556 327.55 208.305C333.074 216.975 342.762 222.816 351.691 227.412L352.217 227.679C366.34 234.385 381.883 237.55 397.504 236.9C413.124 236.251 428.351 231.806 441.868 223.95L442.368 223.641C456.161 215.014 475.365 198.558 466.289 179.798Z" fill="#EE3124"/>
</svg>
